# AST/ASF file generated using VICON BodyLanguage
# -----------------------------------------------
:version 1.10
:name VICON
:units
  mass 1.0
  length 0.45
  angle deg
:documentation
   .ast/.asf automatically generated from VICON data using
   VICON BodyBuilder and BodyLanguage model FoxedUp or BRILLIANT.MOD
:root
   order TX TY TZ RX RY RZ
   axis XYZ
   position 0 0 0  
   orientation 0 0 0 
:bonedata
  begin
     id 1 
     name lhipjoint
     direction 0.521689 -0.742065 0.420928 
     length 2.47002 
     axis 0 0 0  XYZ
  end
  begin
     id 2 
     name lfemur
     direction 0.34202 -0.939693 0  
     length 7.24654  
     axis 0 0 20  XYZ
    dof rx ry rz
    limits (-160.0 20.0)
           (-70.0 70.0)
           (-60.0 70.0)
  end
  begin
     id 3 
     name ltibia
     direction 0.34202 -0.939693 0   
     length 8.04849   
     axis 0 0 20   XYZ
    dof rx
    limits (-10.0 170.0)
  end
  begin
     id 4 
     name lfoot
     direction 0.0745411 -0.2048 0.975961   
     length 1.72367   
     axis -90 7.62852e-016 20   XYZ
    dof rx rz
    limits (-45.0 90.0)
           (-70.0 20.0)
  end
  begin
     id 5 
     name ltoes
     direction 1.53556e-011 -4.21901e-011 1   
     length 0.87311   
     axis -90 7.62852e-016 20   XYZ
    dof rx
    limits (-90.0 20.0)
  end
  begin
     id 6 
     name rhipjoint
     direction -0.52849 -0.738415 0.418857   
     length 2.48223  
     axis 0 0 0  XYZ 
  end
  begin
     id 7 
     name rfemur
     direction -0.34202 -0.939693 0   
     length 7.15571   
     axis 0 0 -20   XYZ
    dof rx ry rz
    limits (-160.0 20.0)
           (-70.0 70.0)
           (-70.0 60.0)
  end
  begin
     id 8 
     name rtibia
     direction -0.34202 -0.939693 0   
     length 7.81659   
     axis 0 0 -20   XYZ
    dof rx
    limits (-10.0 170.0)
 end
 begin
     id 9 
     name rfoot
     direction -0.0917348 -0.252039 0.963359   
     length 1.84382  
     axis -90 -7.62852e-016 -20   XYZ
    dof rx rz
    limits (-45.0 90.0)
           (-20.0 70.0)
  end
  begin
     id 10 
     name rtoes
     direction -1.53551e-011 -4.21879e-011 1   
     length 0.927771   
     axis -90 -7.62852e-016 -20   XYZ
    dof rx
    limits (-90.0 20.0)
  end
  begin
     id 11 
     name lowerback
     direction 0.00583058 0.999822 0.0179296   
     length 2.1429   
     axis 0 0 0   XYZ
    dof rx ry rz
    limits (-20.0 45.0)
           (-30.0 30.0)
           (-30.0 30.0)
  end
  begin
     id 12 
     name upperback
     direction -0.0137999 0.999752 -0.0175071   
     length 2.14252   
     axis 0 0 0   XYZ
    dof rx ry rz
    limits (-20.0 45.0)
           (-30.0 30.0)
           (-30.0 30.0)
  end
  begin
     id 13 
     name thorax
     direction -0.0158036 0.99955 -0.0254909   
     length 2.1383   
     axis 0 0 0   XYZ
    dof rx ry rz
    limits (-20.0 45.0)
           (-30.0 30.0)
           (-30.0 30.0)
  end
  begin
     id 14 
     name lowerneck
     direction -0.0101179 0.999403 -0.0330262   
     length 1.65808   
     axis 0 0 0   XYZ
    dof rx ry rz
    limits (-20.0 45.0)
           (-30.0 30.0)
           (-30.0 30.0)
  end
  begin
     id 15 
     name upperneck
     direction 0.0497734 0.995978 -0.074501   
     length 1.5897   
     axis 0 0 0   XYZ
    dof rx ry rz
    limits (-20.0 45.0)
           (-30.0 30.0)
           (-30.0 30.0)
  end
  begin
     id 16
     name head
     direction 0.0189524 0.999519 -0.0245438  
     length 1.74024  
     axis 0 0 0   XYZ
    dof rx ry rz
    limits (-20.0 45.0)
           (-30.0 30.0)
           (-30.0 30.0)
  end
  begin
     id 17 
     name lclavicle
     direction 0.945604 0.324422 0.0241537  
     length 3.59089  
     axis 0 0 0   XYZ
    dof ry rz
    limits (-20.0 10.0)
           (0.0 20.0)
  end
  begin
     id 18 
     name lhumerus
     direction 1 -4.48964e-011 -2.63524e-027   
     length 5.2391   
     axis 180 -30 -90   XYZ
    dof rx ry rz
    limits (-60.0 90.0)
           (-90.0 90.0)
           (-90.0 90.0)
  end
  begin
     id 19
     name lradius
     direction 1 -4.48969e-011 3.86978e-028   
     length 3.31467   
     axis 180 -30 -90   XYZ
    dof rx
    limits (-10.0 170.0)
  end
  begin
     id 20
     name lwrist
     direction 1 -4.48963e-011 7.20928e-028   
     length 1.65734   
     axis -5.52449e-016 90 90   XYZ
    dof ry
    limits (-180.0 0.0)
 end
  begin
     id 21 
     name lhand
     direction 1 -4.48964e-011 1.44186e-027   
     length 0.9659   
     axis -9.20027e-016 90 90   XYZ
    dof rx rz
    limits (-90.0 90.0)
           (-45.0 45.0)
  end
  begin
     id 22 
     name lfingers
     direction 1 -4.48965e-011 2.88371e-027   
     length 0.778733   
     axis -1.84005e-015 90 90   XYZ
    dof rx
    limits (0.0 90.0)
  end
  begin
     id 23
     name lthumb
     direction 0.707107 -6.34931e-011 0.707107   
     length 1.11811   
     axis -90 45 2.85299e-015   XYZ
    dof rx rz
    limits (-45.0 45.0)
           (-45.0 45.0)
  end
  begin
     id 24 
     name rclavicle
     direction -0.923762 0.370785 0.0958234   
     length 3.54196  
     axis 0 0 0   XYZ 
    dof ry rz
    limits (-10.0 20.0)
           (-20.0 0.0)
  end
  begin
     id 25 
     name rhumerus
     direction -1 -4.48966e-011 1.18702e-017  
     length 5.30252   
     axis 180 30 90   XYZ
    dof rx ry rz
    limits (-90.0 60.0)
           (-90.0 90.0)
           (-90.0 90.0)
  end
  begin
     id 26 
     name rradius
     direction -1 -4.48966e-011 4.46736e-027   
     length 3.67875   
     axis 180 30 90   XYZ
    dof rx
    limits (-10.0 170.0)
  end
  begin
     id 27 
     name rwrist
     direction -1 -4.48966e-011 7.20928e-028   
     length 1.83937   
     axis -5.52449e-016 -90 -90   XYZ
    dof ry
    limits (-180.0 0.0)
  end
  begin
     id 28
     name rhand
     direction -1 -4.48973e-011 1.44186e-027   
     length 0.594811   
     axis -9.20027e-016 -90 -90   XYZ
    dof rx rz
    limits (-90.0 90.0)
           (-45.0 45.0)
  end
  begin
     id 29
     name rfingers
     direction -1 -4.48963e-011 2.88371e-027   
     length 0.479552   
     axis -1.84005e-015 -90 -90   XYZ
    dof rx
    limits (0.0 90.0)
  end
  begin
     id 30
     name rthumb
     direction -0.707107 -6.34932e-011 0.707107   
     length 0.688544   
     axis -90 -45 -2.85299e-015   XYZ
    dof rx rz
    limits (-45.0 45.0)
           (-45.0 45.0)
  end
:hierarchy
  begin
    root lhipjoint rhipjoint lowerback
    lhipjoint lfemur
    lfemur ltibia
    ltibia lfoot
    lfoot ltoes
    rhipjoint rfemur
    rfemur rtibia
    rtibia rfoot
    rfoot rtoes
    lowerback upperback
    upperback thorax
    thorax lowerneck lclavicle rclavicle
    lowerneck upperneck
    upperneck head
    lclavicle lhumerus
    lhumerus lradius
    lradius lwrist
    lwrist lhand lthumb
    lhand lfingers
    rclavicle rhumerus
    rhumerus rradius
    rradius rwrist
    rwrist rhand rthumb
    rhand rfingers
  end

#!OML:ASF E:\acrobat2\Project_11_07_03\Capture day 1\Session 1\Acrobat.ASF
:FULLY-SPECIFIED
:DEGREES
232
root 8.00632 17.0892 -6.13157 112.694 71.9434 -49.237
lowerback 1.14196 -5.06039 -6.88752
upperback -4.93713 -7.46138 -10.3137
thorax -6.43326 -3.42323 -6.64396
lowerneck -0.702975 -10.9425 -2.27416
upperneck -31.8753 -15.751 5.11258
head -9.35404 -7.02223 3.14842
rclavicle 1.06946e-013 6.2816e-014
rhumerus 67.287 -43.3313 -40.0572
rradius 30.2763
rwrist 29.6865
rhand -38.311 -50.3236
rfingers 7.12502
rthumb -11.3393 -79.997
lclavicle 1.06946e-013 6.2816e-014
lhumerus 85.5494 14.0439 32.9455
lradius 35.0287
lwrist -9.63794
lhand -54.269 -67.2005
lfingers 7.12502
lthumb -26.6808 -39.0611
rfemur 20.0797 4.07263 9.66082
rtibia 18.9517
rfoot -2.61142 -28.9707
rtoes 10.2818
lfemur 161.306 168.109 235.146
ltibia 11.4932
lfoot -23.4835 14.682
ltoes 45.4017
233
root 8.02881 17.0343 -5.80575 111.395 74.1222 -51.5117
lowerback 0.448787 -4.91214 -6.65619
upperback -5.20153 -7.18391 -10.0746
thorax -6.28908 -3.29865 -6.57889
lowerneck -0.894109 -10.9991 -2.45882
upperneck -31.4696 -15.7249 5.325
head -9.13384 -7.02399 3.20133
rclavicle 5.20816e-014 -1.98785e-014
rhumerus 68.6579 -43.1093 -43.21
rradius 29.3472
rwrist 30.0837
rhand -38.7734 -51.2481
rfingers 7.12502
rthumb -11.7852 -80.8965
lclavicle 5.20816e-014 -1.98785e-014
lhumerus 85.7625 14.4287 32.5452
lradius 35.1644
lwrist -10.2405
lhand -54.15 -67.4203
lfingers 7.12502
lthumb -26.5669 -39.2635
rfemur 20.2825 4.28468 9.44463
rtibia 17.3976
rfoot -3.92598 -28.3514
rtoes 8.14785
lfemur 164.165 171.883 233.936
ltibia 10.2587
lfoot -24.5716 14.8721
ltoes 44.9736
234
root 8.0501 16.9777 -5.48999 108.965 76.3804 -54.7484
lowerback -0.180991 -4.75071 -6.29403
upperback -5.42737 -6.89124 -9.82042
thorax -6.15122 -3.17422 -6.56264
lowerneck -1.14293 -11.0163 -2.63202
upperneck -30.9892 -15.6357 5.50161
head -8.88561 -6.99769 3.22938
rclavicle 1.63401e-013 1.07344e-013
rhumerus 70.2162 -42.7859 -46.746
rradius 28.6378
rwrist 30.2967
rhand -39.4538 -52.0777
rfingers 7.12502
rthumb -12.4412 -81.6874
lclavicle 1.63401e-013 1.07344e-013
lhumerus 86.0172 14.7577 32.3554
lradius 35.2207
lwrist -11.0799
lhand -54.0702 -67.7842
lfingers 7.12502
lthumb -26.4905 -39.6159
rfemur 20.4831 4.47224 9.2242
rtibia 15.9924
rfoot -4.97557 -27.4447
rtoes 6.33108
lfemur 167.103 175.788 232.437
ltibia 8.99987
lfoot -25.9788 15.0793
ltoes 44.5885
235
root 8.07014 16.9218 -5.18463 104.909 78.6236 -59.496
lowerback -0.788519 -4.58024 -5.84633
upperback -5.63354 -6.58995 -9.56609
thorax -6.01299 -3.05037 -6.59011
lowerneck -1.33265 -11.0277 -2.92246
upperneck -30.5206 -15.5581 5.61952
head -8.65002 -6.95039 3.26072
rclavicle -4.05521e-014 -1.19271e-014
rhumerus 71.8119 -42.3669 -50.495
rradius 28.1852
rwrist 30.2932
rhand -40.3729 -52.9041
rfingers 7.12502
rthumb -13.3272 -82.4579
lclavicle -4.05521e-014 -1.19271e-014
lhumerus 86.3007 15.0304 32.3098
lradius 35.2093
lwrist -12.0589
lhand -54.0172 -68.2976
lfingers 7.12502
lthumb -26.4398 -40.1217
rfemur 20.6193 4.63823 8.94236
rtibia 14.7567
rfoot -5.85067 -26.348
rtoes 5.1454
lfemur 170.023 179.555 230.576
ltibia 7.87537
lfoot -27.3449 15.2204
ltoes 44.2395
236
root 8.08865 16.8693 -4.88984 98.3643 80.7799 -66.6763
lowerback -1.4224 -4.39904 -5.31948
upperback -5.83687 -6.27596 -9.30522
thorax -5.86176 -2.92467 -6.65472
lowerneck -1.44718 -11.0184 -3.28542
upperneck -30.1211 -15.4856 5.61051
head -8.46077 -6.8724 3.27156
rclavicle -8.74653e-014 -1.03368e-013
rhumerus 73.1737 -41.9268 -53.6518
rradius 27.835
rwrist 29.5898
rhand -41.4587 -53.7905
rfingers 7.12502
rthumb -14.3737 -83.2728
lclavicle -8.74653e-014 -1.03368e-013
lhumerus 86.6171 15.2505 32.3724
lradius 35.1235
lwrist -13.0952
lhand -53.9822 -68.9084
lfingers 7.12502
lthumb -26.4063 -40.7275
rfemur 20.6288 4.78569 8.59898
rtibia 13.698
rfoot -6.59472 -25.1477
rtoes 4.53169
lfemur 172.85 182.845 228.392
ltibia 6.99072
lfoot -28.2546 15.2608
ltoes 43.702
237
root 8.10566 16.8207 -4.60604 87.5956 82.7591 -78.041
lowerback -2.09172 -4.19823 -4.69078
upperback -6.034 -5.93778 -9.0276
thorax -5.68768 -2.79266 -6.75897
lowerneck -1.49571 -11.0067 -3.62766
upperneck -29.832 -15.4491 5.45628
head -8.33828 -6.78482 3.2459
rclavicle -4.85035e-014 7.95139e-015
rhumerus 74.2054 -41.5652 -55.689
rradius 27.417
rwrist 27.9362
rhand -42.6153 -54.6702
rfingers 7.12502
rthumb -15.4878 -84.0698
lclavicle -4.85035e-014 7.95139e-015
lhumerus 86.8843 15.5081 32.3728
lradius 35.0352
lwrist -13.9766
lhand -53.978 -69.4705
lfingers 7.12502
lthumb -26.4023 -41.2889
rfemur 20.4957 4.91097 8.23013
rtibia 12.8068
rfoot -7.15711 -23.9046
rtoes 3.94804
lfemur 175.566 185.549 225.999
ltibia 6.31909
lfoot -28.5215 15.1938
ltoes 42.9437
